<?xml version="1.0" encoding="utf-8"?>
<!-- Generator: Adobe Illustrator 28.0.0, SVG Export Plug-In . SVG Version: 6.00 Build 0)  -->
<svg version="1.1" id="レイヤー_1" xmlns="http://www.w3.org/2000/svg" xmlns:xlink="http://www.w3.org/1999/xlink" x="0px"
	 y="0px" width="44px" height="35px" viewBox="0 0 44 35" enable-background="new 0 0 44 35" xml:space="preserve">
<g>
	<path fill="none" stroke="#333333" stroke-miterlimit="10" d="M0.9,30.1V11.7c0-1.3,1-2.3,2.3-2.3h37.6c1.3,0,2.3,1,2.3,2.3v18.4
		H0.9z"/>
	<path fill="none" stroke="#333333" stroke-miterlimit="10" d="M7.8,30.2c0,2.2,1.7,3.9,3.9,3.9c2.2,0,3.9-1.7,3.9-3.9"/>
	<path fill="none" stroke="#333333" stroke-miterlimit="10" d="M29.7,30.2c0,2.2,1.7,3.9,3.9,3.9s3.9-1.7,3.9-3.9"/>
	<polyline fill="none" stroke="#333333" stroke-miterlimit="10" points="0.9,15.2 5.9,15.2 5.9,25 0.9,25 	"/>
	<rect x="10.8" y="15.2" fill="none" stroke="#333333" stroke-miterlimit="10" width="5.8" height="5.8"/>
	
		<rect x="10.8" y="2.3" transform="matrix(0.7071 -0.7071 0.7071 0.7071 0.3031 11.2047)" fill="none" stroke="#333333" stroke-miterlimit="10" width="5.8" height="5.8"/>
	
		<rect x="28.9" y="2.3" transform="matrix(0.707 -0.7072 0.7072 0.707 5.6121 24.019)" fill="none" stroke="#333333" stroke-miterlimit="10" width="5.8" height="5.8"/>
	<rect x="21.8" y="15.2" fill="none" stroke="#333333" stroke-miterlimit="10" width="5.8" height="5.8"/>
	<rect x="32.8" y="15.2" fill="none" stroke="#333333" stroke-miterlimit="10" width="5.8" height="5.8"/>
</g>
</svg>
