<?xml version="1.0" encoding="utf-8"?>
<!-- Generator: Adobe Illustrator 28.0.0, SVG Export Plug-In . SVG Version: 6.00 Build 0)  -->
<svg version="1.1" id="レイヤー_1" xmlns="http://www.w3.org/2000/svg" xmlns:xlink="http://www.w3.org/1999/xlink" x="0px"
	 y="0px" width="42px" height="26px" viewBox="0 0 42 26" enable-background="new 0 0 42 26" xml:space="preserve">
<g>
	<path fill="#333333" d="M29.9,5c0,0.4-0.4,0.8-0.8,0.8c-0.4,0-0.8-0.4-0.8-0.8c0-0.4,0.4-0.8,0.8-0.8C29.5,4.2,29.9,4.6,29.9,5"/>
	<path fill="#333333" d="M29.9,9c0,0.4-0.4,0.8-0.8,0.8c-0.4,0-0.8-0.4-0.8-0.8c0-0.4,0.4-0.8,0.8-0.8C29.5,8.2,29.9,8.6,29.9,9"/>
	<path fill="#333333" d="M29.9,13c0,0.4-0.4,0.8-0.8,0.8c-0.4,0-0.8-0.4-0.8-0.8c0-0.4,0.4-0.8,0.8-0.8C29.5,12.2,29.9,12.6,29.9,13
		"/>
	<path fill="#333333" d="M29.9,17c0,0.4-0.4,0.8-0.8,0.8c-0.4,0-0.8-0.4-0.8-0.8c0-0.4,0.4-0.8,0.8-0.8C29.5,16.2,29.9,16.6,29.9,17
		"/>
	<path fill="#333333" d="M29.9,21c0,0.4-0.4,0.8-0.8,0.8c-0.4,0-0.8-0.4-0.8-0.8c0-0.4,0.4-0.8,0.8-0.8C29.5,20.2,29.9,20.6,29.9,21
		"/>
	<path fill="none" stroke="#333333" stroke-miterlimit="10" d="M35.7,13c0-2.9,2.4-5.3,5.3-5.3V1H1v24h40v-6.7
		C38.1,18.3,35.7,15.9,35.7,13z"/>
</g>
</svg>
